<svg xmlns="http://www.w3.org/2000/svg" viewBox="0 0 64 64">
  <!-- mugen: the wordmark's serif m with its height annotated — a dimension
       line off a drawing. Ink tile, bone glyph, purple measure. -->
  <rect width="64" height="64" rx="14" fill="#131119"/>
  <path d="M20.23 44.94L11.75 44.94Q11 44.94 11 44.39L11 44.39Q11 43.94 11.65 43.78L11.65 43.78L12.25 43.68Q13.31 43.48 13.63 43.06Q13.96 42.63 13.96 41.58L13.96 41.58L13.96 24.73Q13.96 23.83 13.68 23.50Q13.41 23.17 12.71 23.07L12.71 23.07L11.65 22.92Q11 22.87 11 22.37L11 22.37Q11 21.97 11.80 21.82L11.80 21.82Q13.36 21.57 14.18 21.02Q15.01 20.47 15.91 19.66L15.91 19.66Q16.37 19.21 16.67 19.21L16.67 19.21Q17.12 19.21 17.12 19.81L17.12 19.81L17.12 22.07Q17.12 22.42 17.42 22.60Q17.72 22.77 18.07 22.42L18.07 22.42Q20.13 20.47 21.66 19.76Q23.19 19.06 24.74 19.06L24.74 19.06Q26.19 19.06 27.32 19.84Q28.45 20.62 29.00 22.17L29.00 22.17Q29.15 22.57 29.53 22.65Q29.91 22.72 30.26 22.37L30.26 22.37Q32.31 20.47 33.82 19.76Q35.32 19.06 36.88 19.06L36.88 19.06Q38.98 19.06 40.31 20.64Q41.64 22.22 41.64 25.28L41.64 25.28L41.64 41.58Q41.64 42.63 41.97 43.06Q42.29 43.48 43.35 43.63L43.35 43.63L44.45 43.78Q45.00 43.88 45.00 44.39L45.00 44.39Q45.00 44.94 44.40 44.94L44.40 44.94L35.82 44.94Q35.12 44.94 35.12 44.39L35.12 44.39Q35.12 43.88 35.67 43.78L35.67 43.78L36.37 43.68Q37.53 43.53 37.88 43.08Q38.23 42.63 38.23 41.58L38.23 41.58L38.23 25.83Q38.23 23.37 37.35 22.37Q36.47 21.37 34.97 21.37L34.97 21.37Q33.47 21.37 32.24 22.30Q31.01 23.22 30.26 24.75Q29.50 26.28 29.50 28.14L29.50 28.14L29.50 41.58Q29.50 42.63 29.86 43.06Q30.21 43.48 31.31 43.63L31.31 43.63L32.41 43.78Q32.96 43.88 32.96 44.39L32.96 44.39Q32.96 44.94 32.36 44.94L32.36 44.94L23.84 44.94Q23.14 44.94 23.14 44.39L23.14 44.39Q23.14 43.88 23.69 43.78L23.69 43.78L24.39 43.68Q25.44 43.53 25.77 43.08Q26.09 42.63 26.09 41.58L26.09 41.58L26.09 25.83Q26.09 23.37 25.22 22.37Q24.34 21.37 22.83 21.37L22.83 21.37Q21.33 21.37 20.10 22.30Q18.87 23.22 18.12 24.75Q17.37 26.28 17.37 28.14L17.37 28.14L17.37 41.58Q17.37 42.63 17.69 43.08Q18.02 43.53 19.07 43.63L19.07 43.63L20.43 43.78Q20.98 43.88 20.98 44.34L20.98 44.34Q20.98 44.94 20.23 44.94L20.23 44.94Z" fill="#ECEAF4"/>
  <g stroke="#A48BF5" stroke-width="2.5" stroke-linecap="round">
    <line x1="52.5" y1="19" x2="52.5" y2="45"/>
    <line x1="49" y1="22" x2="56" y2="16"/>
    <line x1="49" y1="48" x2="56" y2="42"/>
  </g>
</svg>
